<?xml version="1.0" encoding="utf-8"?>
<!-- Generator: Adobe Illustrator 23.1.0, SVG Export Plug-In . SVG Version: 6.00 Build 0)  -->
<svg version="1.1" id="Layer_1" xmlns="http://www.w3.org/2000/svg" xmlns:xlink="http://www.w3.org/1999/xlink" x="0px" y="0px"
	 viewBox="0 0 117 234" style="enable-background:new 0 0 117 234;" xml:space="preserve">
<style type="text/css">
	.st0{fill:#0BC900;}
	.st1{fill:#FDFFFC;}
</style>
<path class="st0" d="M117,0v27c-9.94,0-18.94,4.03-25.46,10.54C87.07,42.02,82.63,47.67,81,54l0,0V36C81,18,99,0,117,0z"/>
<path class="st1" d="M91.54,46.54c-4.48,4.48-7.78,10.14-9.41,16.46C81.39,65.88,81,68.89,81,72v108h-9v36h9c19.88,0,36-16.12,36-36
	V36C107.06,36,98.06,40.03,91.54,46.54z"/>
<path class="st1" d="M63,108c-34.79,0-63,28.21-63,63c0,34.79,28.21,63,63,63v-36c-14.91,0-27-12.09-27-27c0-14.91,12.09-27,27-27h9
	v-36H63z"/>
</svg>
