<?xml version="1.0" encoding="utf-8"?>
<!-- Generator: Adobe Illustrator 23.1.0, SVG Export Plug-In . SVG Version: 6.00 Build 0)  -->
<svg version="1.1" id="Layer_1" xmlns="http://www.w3.org/2000/svg" xmlns:xlink="http://www.w3.org/1999/xlink" x="0px" y="0px"
	 viewBox="0 0 68 113.4" style="enable-background:new 0 0 68 113.4;" xml:space="preserve">
<style type="text/css">
	.st0{fill:#333333;}
	.st1{fill:#009EAA;}
</style>
<g>
	<path class="st0" d="M26.3,101.2h-3v12.1h2.8c3.7,0,4.2-2,4.2-3.9v-4.5C30.3,103,29.8,101.2,26.3,101.2z M25.4,102.9H26
		c2.1,0,2.2,0.7,2.2,1.8v4.8c0,1.3-0.3,1.9-2.2,1.9h-0.6V102.9z"/>
	<path class="st0" d="M34.7,106c-1.4-0.8-1.5-1-1.5-1.9c0-0.9,0.3-1.3,1.1-1.3c0.8,0,1.1,0.3,1.1,1.2v0.9h2.1v-1
		c0-1.9-1.1-2.9-3.1-2.9c-1.1,0-1.9,0.3-2.5,0.9c-0.5,0.5-0.8,1.3-0.8,2.3c0,1.9,1,2.6,2.7,3.5c1.5,0.8,1.8,1.3,1.8,2.4
		c0,1.3-0.4,1.6-1.3,1.6c-0.9,0-1.3-0.4-1.3-1.3v-1.1l-2.1,0v1.1c0,1.4,0.6,3.1,3.5,3.1c2.3,0,3.5-1.2,3.5-3.4
		C37.7,107.8,36.8,107.1,34.7,106z"/>
	<path class="st0" d="M41.2,106.3v1.8h2v1.4c0,1.8-0.3,2.3-1.5,2.3c-0.8,0-1.3-0.3-1.3-1.6v-5.8c0-1.2,0.3-1.5,1.4-1.5
		c1.2,0,1.3,0.6,1.3,1.4v0.7h2.1v-0.7c0-2.2-1.1-3.2-3.4-3.2s-3.6,1.2-3.6,3.3v5.8c0,2.2,1.1,3.3,3.2,3.3c0.8,0,1.5-0.2,1.9-0.5
		l0.1,0.3h1.8l0-7L41.2,106.3L41.2,106.3z"/>
	<path class="st0" d="M51.7,101.2v5.1c0,0.7,0,1.4,0,2c-0.9-2.3-2.1-5.4-2.7-6.9l-0.1-0.3h-2.2v12.1l2.1,0v-5.1c0-0.7,0-1.5,0-2.3
		c0.9,2.3,2.1,5.4,2.8,7.1l0.1,0.3h2.2v-12.1L51.7,101.2L51.7,101.2z"/>
</g>
<path class="st0" d="M53.8,0H23.3v98.3h30.5L68,90.4V8L53.8,0z M61.8,9.5v79.4l-8.5,4.8H29.6V4.7h23.7L61.8,9.5z"/>
<rect x="17.9" y="0" class="st0" width="2.3" height="113.4"/>
<polygon class="st0" points="8.5,20 14.8,18.4 14.8,104.9 0.5,113.3 0,108.3 8.5,103.3 "/>
<polygon class="st1" points="14.8,14.2 8.5,15.8 8.5,1.6 14.8,0 "/>
</svg>
